<?xml version="1.0" standalone="no"?>
<!DOCTYPE svg PUBLIC "-//W3C//DTD SVG 20010904//EN"
 "http://www.w3.org/TR/2001/REC-SVG-20010904/DTD/svg10.dtd">
<svg version="1.0" xmlns="http://www.w3.org/2000/svg"
 width="460.000000pt" height="460.000000pt" viewBox="0 0 460.000000 460.000000"
 preserveAspectRatio="xMidYMid meet">

<g transform="translate(0.000000,460.000000) scale(0.100000,-0.100000)"
fill="#000000" stroke="none">
<path d="M2101 4589 c-388 -30 -797 -179 -1133 -414 -24 -16 -45 -32 -48 -35
-3 -3 -39 -32 -80 -65 -157 -124 -341 -331 -474 -533 -93 -141 -216 -405 -256
-547 -70 -254 -89 -359 -98 -544 -18 -361 25 -651 144 -969 35 -94 145 -324
168 -352 7 -8 30 -43 50 -78 21 -34 43 -68 49 -75 7 -6 20 -24 29 -39 64 -100
241 -286 378 -398 30 -25 66 -55 80 -68 13 -12 28 -22 31 -22 3 0 26 -16 50
-35 24 -19 47 -35 51 -35 4 0 26 -13 50 -29 208 -139 542 -264 848 -317 151
-26 569 -26 720 0 304 53 646 181 846 315 25 17 48 31 51 31 25 0 313 238 392
324 20 22 43 47 52 56 84 88 193 239 280 387 100 170 169 331 225 530 70 248
78 316 78 628 0 294 -5 342 -55 540 -49 192 -95 319 -173 475 -135 269 -296
483 -521 691 -72 65 -304 239 -321 239 -2 0 -20 11 -40 25 -52 35 -285 148
-369 178 -223 81 -409 121 -630 137 -156 11 -222 11 -374 -1z m-420 -1039
c138 -31 248 -86 339 -171 19 -18 109 -100 200 -183 91 -83 167 -154 170 -157
11 -12 301 -277 360 -329 222 -194 258 -251 279 -450 25 -231 -53 -453 -215
-613 -268 -265 -695 -289 -988 -57 -129 103 -199 205 -257 375 -21 63 -24 87
-23 225 1 133 4 164 22 214 34 92 76 149 190 256 l105 99 66 -57 c35 -31 78
-68 94 -82 16 -14 59 -53 95 -88 l67 -63 -82 -77 c-45 -42 -91 -93 -102 -112
-27 -45 -28 -142 -3 -213 20 -58 98 -145 154 -172 79 -36 211 -35 286 4 81 42
145 127 161 216 20 105 -2 169 -81 239 -24 21 -79 71 -123 110 -44 39 -82 74
-85 77 -3 3 -63 57 -135 119 -71 62 -157 138 -191 169 -33 31 -91 83 -129 116
-38 33 -83 73 -100 89 -57 54 -90 74 -150 92 -52 15 -68 15 -119 5 -132 -27
-212 -101 -239 -218 -12 -48 -14 -181 -11 -709 2 -357 6 -765 8 -908 l3 -258
-66 5 c-171 13 -301 114 -357 277 -18 52 -19 96 -19 830 0 881 -3 847 83 1020
39 79 61 109 133 181 119 118 219 167 434 212 50 11 143 5 226 -13z m1528 -11
c182 -42 343 -152 445 -304 39 -57 59 -103 89 -195 20 -64 21 -78 18 -860 -2
-859 -2 -845 -57 -943 -28 -51 -100 -119 -155 -147 -44 -23 -147 -50 -189 -50
l-32 0 7 923 c7 842 6 926 -9 970 -43 126 -183 218 -314 205 -74 -7 -137 -43
-225 -129 -74 -72 -80 -76 -96 -61 -10 10 -49 44 -86 77 -37 33 -91 81 -119
106 -28 26 -62 56 -75 66 l-25 20 29 24 c15 13 51 47 79 75 113 113 235 188
356 219 138 37 213 37 359 4z"/>
</g>
</svg>
